<?xml version="1.0" encoding="UTF-8" standalone="no"?>
<!-- Created with Inkscape (http://www.inkscape.org/) -->

<svg
   xmlns:dc="http://purl.org/dc/elements/1.1/"
   xmlns:cc="http://creativecommons.org/ns#"
   xmlns:rdf="http://www.w3.org/1999/02/22-rdf-syntax-ns#"
   xmlns:svg="http://www.w3.org/2000/svg"
   xmlns="http://www.w3.org/2000/svg"
   version="1.1"
   width="279"
   height="279"
   id="svg3148">
  <metadata
     id="metadata3154">
    <rdf:RDF>
      <cc:Work
         rdf:about="">
        <dc:format>image/svg+xml</dc:format>
        <dc:type
           rdf:resource="http://purl.org/dc/dcmitype/StillImage" />
        <dc:title></dc:title>
      </cc:Work>
    </rdf:RDF>
  </metadata>
  <defs
     id="defs3152" />
  <path
     d="m 277.2267,139.5 a 137.7267,137.7267 0 1 1 -275.4533998,0 137.7267,137.7267 0 1 1 275.4533998,0 z"
     id="path3192"
     style="fill:#ffffff;fill-opacity:1;fill-rule:nonzero;stroke:none" />
  <g
     id="g3176">
    <path
       d="M 86.415186,259.57859 C 82.69603,257.95927 79.06384,253.5692 78.305309,249.77654 77.882842,247.66421 77.174339,247 75.343615,247 c -3.219805,0 -3.873248,-2.19361 -2.467531,-8.28351 1.153432,-4.99694 1.124258,-5.12092 -1.95173,-8.29454 -2.201319,-2.27118 -2.938414,-3.80229 -2.498195,-5.1893 0.379655,-1.19618 -0.423158,-4.05331 -2.047803,-7.2879 -3.226823,-6.42446 -4.157562,-15.87436 -2.398199,-24.34917 2.930688,-14.11705 16.72443,-33.63876 30.446288,-43.08936 C 97.4919,148.39496 100,146.34696 100,145.9551 c 0,-0.39185 -1.348467,-1.27101 -2.996592,-1.95369 l -2.996592,-1.24123 2.246592,-4.00522 c 2.793814,-4.98081 3.844012,-5.39878 7.769062,-3.09208 3.05266,1.794 3.15965,1.79134 4.55876,-0.11356 1.30361,-1.77487 1.11511,-2.27597 -2.09132,-5.55965 l -3.52406,-3.60896 2.51708,-2.36467 c 1.96871,-1.84951 2.52185,-3.3615 2.53903,-6.94035 0.0269,-5.60201 2.65992,-11.66206 6.74039,-15.51337 2.52336,-2.381653 2.90741,-3.300722 2.17939,-5.215561 -1.6442,-4.324573 -2.24877,-15.027266 -1.04406,-18.483092 1.02779,-2.948325 0.92452,-3.489182 -0.93394,-4.891017 -1.71856,-1.296314 -2.03397,-2.454599 -1.77663,-6.524388 L 113.5,61.5 l 4.04804,0.31623 c 3.9867,0.311438 4.08458,0.238234 6.45862,-4.830457 1.32582,-2.830679 3.6323,-6.016626 5.1255,-7.079883 1.49321,-1.063257 3.02134,-3.328301 3.39585,-5.033432 0.64057,-2.916488 0.89374,-3.065703 4.27146,-2.517574 2.67703,0.434422 5.94681,-0.299864 12.85186,-2.88611 C 154.74506,37.560948 159.58692,36 160.41102,36 c 0.91333,0 1.74829,1.332287 2.13849,3.412234 0.97223,5.182412 -2.29813,8.973095 -9.4799,10.988198 -5.5427,1.555203 -5.76582,1.754563 -8.00208,7.149925 -1.26521,3.052563 -2.1355,5.690595 -1.93396,5.862292 0.20154,0.171698 2.23754,0.55072 4.52445,0.842271 3.70263,0.472036 4.48082,0.18592 7.10535,-2.612414 1.62103,-1.728378 3.2233,-3.930006 3.56059,-4.892506 1.08172,-3.086754 2.37736,-1.896613 4.70184,4.318976 l 2.26964,6.068976 -5.36356,5.431024 L 154.56832,78 l -8.11749,0 c -4.46462,0 -8.35674,0.239242 -8.64915,0.531649 -1.21594,1.215948 1.43009,10.503438 5.11923,17.968351 2.34412,4.74327 4.1366,9.96853 4.40315,12.83561 0.66259,7.12692 4.64933,10.80601 15.74044,14.52578 l 8.73981,2.93118 7.34785,-10.06846 c 4.04131,-5.53765 7.63706,-10.55348 7.99055,-11.14628 0.35349,-0.59281 0.28116,-3.32783 -0.16072,-6.07783 l -0.80343,-5 5.60354,-5.723849 c 3.08194,-3.148116 5.79007,-5.537315 6.01805,-5.30933 0.22799,0.227985 -0.99515,2.878367 -2.71808,5.889738 -2.62086,4.58079 -3.02783,6.130435 -2.49124,9.486099 0.7553,4.723362 3.99734,6.668712 8.90917,5.345852 2.62777,-0.70772 8.33044,-7.45765 9.85532,-11.665196 0.20398,-0.562823 0.64946,-0.768835 0.98995,-0.457805 1.06677,0.97446 -3.2492,14.370101 -5.06001,15.704941 -0.94791,0.69875 -3.41722,1.72654 -5.48736,2.28397 -2.07014,0.55743 -4.20901,1.84523 -4.75305,2.86177 -1.98137,3.70222 -22.21597,31.61869 -23.79882,32.83381 -0.89556,0.6875 -2.64072,1.25 -3.87814,1.25 -4.06163,0 -3.60512,1.96494 2.27309,9.78389 3.19049,4.24386 5.89817,7.87531 6.01707,8.06989 0.1189,0.19458 5.89064,-1.53725 12.8261,-3.8485 l 12.60993,-4.20228 2.98273,-5.28511 2.98274,-5.28511 7.15402,-1.06182 c 3.93472,-0.58399 7.56931,-0.80515 8.07689,-0.49145 0.50757,0.3137 -1.92712,1.83182 -5.41043,3.37359 -4.70415,2.08214 -6.70923,3.59703 -7.79475,5.88914 -2.07577,4.38304 -0.58187,8.04139 3.91472,9.58657 3.02802,1.04053 4.34283,0.90042 9.75,-1.03893 3.4375,-1.23291 6.25,-2.03213 6.25,-1.77606 0,0.60452 -3.52416,3.55052 -8.27523,6.91763 -3.61516,2.56208 -4.00167,2.62484 -9.11579,1.48035 -5.30092,-1.18629 -5.47333,-1.14751 -23.22477,5.22444 -23.07532,8.28297 -22.21796,8.04662 -23.95636,6.60388 -2.61007,-2.16617 -2.75463,-0.19063 -0.69465,9.49335 1.10945,5.21555 1.77335,9.72665 1.47532,10.02467 C 166.9105,200.75616 165.16667,201 163.33333,201 160.31008,201 160,201.27397 160,203.94521 c 0,2.79997 0.23211,2.96024 4.70703,3.25 4.64938,0.30106 4.71986,0.35773 5.75473,4.62778 0.57624,2.37764 1.83307,4.7625 2.79297,5.29969 0.9599,0.53718 1.74527,1.5892 1.74527,2.3378 0,0.74861 2.04092,2.3491 4.53539,3.55665 7.46937,3.61586 14.24485,14.49333 13.27401,21.31033 -0.21588,1.51585 -1.12326,2.26651 -3.00194,2.48342 -2.05716,0.23751 -2.95783,1.11471 -3.81675,3.71727 -2.31556,7.01621 -11.21542,11.56552 -18.68887,9.55313 -4.48683,-1.20818 -9.84759,-6.42322 -10.8958,-10.59962 L 155.78318,247 131.89159,247 108,247 l 0,2.42327 c 0,2.89703 -4.13371,8.07739 -8.069456,10.11265 -3.494896,1.80728 -9.41955,1.82598 -13.515358,0.0427 z m -1.550069,-36.66755 c 2.910172,-2.71124 2.390877,-3.94805 -2.346258,-5.58808 -2.127713,-0.73664 -4.033716,-1.50448 -4.235561,-1.70633 -0.314127,-0.31413 2.537793,-8.46464 3.31232,-9.46629 0.148708,-0.19232 1.916958,0.19375 3.929444,0.85793 4.019526,1.32656 5.008454,0.80853 5.981187,-3.13318 0.612728,-2.48289 0.400145,-2.66204 -3.929237,-3.31127 -4.135851,-0.62021 -4.575696,-0.94552 -4.563357,-3.37509 0.0075,-1.4788 0.297886,-3.75053 0.645281,-5.04829 0.586507,-2.191 0.978425,-2.31355 5.486346,-1.71556 L 94,191.06889 l 0,-3.97317 c 0,-3.95502 -0.02102,-3.97633 -4.599313,-4.66288 -4.47219,-0.67065 -4.582748,-0.77254 -4,-3.68628 C 85.730309,177.09845 86,174.86094 86,173.77431 c 0,-1.72792 0.564353,-1.93081 4.5,-1.6178 2.894377,0.2302 4.5,-0.0461 4.5,-0.7743 0,-0.62272 0.27122,-2.48831 0.60271,-4.14576 0.553558,-2.76779 0.308903,-3.11052 -3,-4.20255 C 90.62122,162.37995 89,161.42083 89,160.90252 c 0,-0.51831 -2.623544,1.9526 -5.830099,5.4909 -6.919963,7.63591 -13.76993,20.66716 -15.27817,29.06491 -1.925702,10.72215 1.62737,26.0032 5.792854,24.9139 1.154094,-0.3018 2.771006,0.48382 4.261833,2.07073 2.913672,3.10147 4.012306,3.17579 6.918699,0.46808 z M 100,153 c 0,-0.55 -0.423442,-1 -0.940983,-1 -0.517541,0 -1.219098,0.45 -1.559017,1 -0.339919,0.55 0.08352,1 0.940983,1 C 99.298442,154 100,153.55 100,153 z m 19.70471,-38.15458 c 0.59147,-4.99397 0.56446,-5.05984 -1.59941,-3.90177 -3.71681,1.98917 -5.56111,10.20054 -2.89083,12.87082 1.68257,1.68257 3.70783,-2.36278 4.49024,-8.96905 z M 118.99368,104.75 c 0.003,-0.9625 -0.28157,-1.75 -0.63344,-1.75 -0.69982,0 -2.82144,2.51775 -4.39198,5.21202 -0.94201,1.61602 -0.82928,1.61602 2.01056,0 1.6547,-0.94161 3.01138,-2.49952 3.01486,-3.46202 z m 58.3004,-45.076078 C 173.7738,58.384892 170.81425,56 172.7349,56 c 0.6242,0 2.27139,0.432092 3.66043,0.960204 2.43724,0.926638 2.4846,0.870372 1.35467,-1.609547 C 176.08868,51.704465 178.75689,50 186.12603,50 c 3.15907,0 7.01057,-0.517656 8.55887,-1.150347 L 197.5,47.699305 193,46.810386 c -2.475,-0.488906 -6.1875,-0.640931 -8.25,-0.337835 -3.14828,0.462658 -3.75,0.262325 -3.75,-1.248508 0,-3.438038 5.55921,-8.240681 16,-13.822524 12.69366,-6.786268 15.51564,-9.063177 7.90678,-6.379559 -2.97373,1.048823 -8.71149,2.854573 -12.75058,4.012776 -6.21875,1.783218 -8.20261,2.937643 -12.94968,7.535544 C 176.12329,39.556626 173.41542,42 173.18903,42 c -1.0049,0 1.19985,-7.833913 3.46006,-12.294206 1.36695,-2.697564 2.28634,-5.103695 2.04308,-5.346958 -1.09072,-1.090715 -7.9373,11.244223 -10.43474,18.799433 -2.41508,7.30606 -2.79696,7.929847 -3.07582,5.024248 -1.11704,-11.638958 7.30611,-25.247584 19.51873,-31.534911 4.58429,-2.360093 4.6884,-2.167076 1.63833,3.037466 -2.42,4.129425 -2.51395,4.584955 -0.79215,3.840914 2.48184,-1.072479 14.20139,-4.060643 21.76366,-5.54914 3.99913,-0.787156 6.92096,-2.118906 9.37376,-4.27249 l 3.56358,-3.128862 -0.7436,4.462253 C 218.03423,23.85727 213.79703,29.238012 202.20921,37 l -5.22513,3.5 6.25796,0.5 6.25796,0.5 -4.50774,4.639315 C 200.38257,50.883561 193.17742,54 186.8185,54 185.26832,54 184,54.36 184,54.8 c 0,1.413175 2.34521,3.2 4.2,3.2 0.99,0 1.8,0.401855 1.8,0.893011 0,2.277871 -7.37923,2.731401 -12.70592,0.780911 z"
       id="path3190"
       style="fill:#d0d0d0" />
    <path
       d="M 85.371398,258.56536 C 81.431873,256.14747 78,251.04185 78,247.59887 78,246.53676 77.112171,246 75.355395,246 c -2.644595,0 -2.644602,-2e-5 -2.050527,-6.36184 0.571708,-6.12229 0.477032,-6.48156 -2.514265,-9.54113 -2.265374,-2.31708 -2.809272,-3.47836 -2.005555,-4.28208 0.803716,-0.80371 0.450817,-2.38939 -1.301272,-5.84697 -4.87513,-9.6206 -5.055715,-23.36888 -0.460096,-35.02806 4.808314,-12.19879 17.86561,-28.07464 29.300827,-35.62571 l 4.824503,-3.18579 -3.074503,-1.58989 C 96.383528,143.66409 95,142.71727 95,142.43448 95,141.55148 99.016719,134 99.486397,134 c 0.245162,0 2.044873,0.76257 3.999363,1.6946 3.28976,1.56878 3.67506,1.57315 5.18927,0.0589 1.51421,-1.51421 1.40137,-1.90249 -1.51969,-5.22939 -3.69526,-4.20867 -3.84379,-5.07726 -1.15534,-6.75622 1.51667,-0.94718 2.00236,-2.33879 2.00977,-5.75848 0.0114,-5.24409 3.5335,-13.41244 7.26351,-16.84511 2.07238,-1.907167 2.39339,-2.839805 1.74983,-5.083766 C 115.47582,90.685488 114.9384,81.46082 115.96976,78 c 0.84208,-2.825664 0.7528,-3.713908 -0.46336,-4.610243 C 114.49714,72.645913 114,70.54865 114,67.034722 l 0,-5.244793 3.93661,0.375416 c 3.82971,0.365222 3.99658,0.247389 6.14479,-4.339129 1.21449,-2.593 3.71802,-6.177947 5.56339,-7.966548 1.84536,-1.788601 3.35521,-4.07785 3.35521,-5.08722 0,-2.173892 2.69734,-3.475106 4.1638,-2.008644 0.70583,0.705825 4.61924,-0.242128 12.45071,-3.015956 6.28174,-2.224929 11.58571,-3.865893 11.7866,-3.646587 0.20089,0.219307 0.66692,1.808137 1.03561,3.530735 0.95604,4.466764 -2.68063,8.410799 -9.59949,10.410838 -4.75772,1.375315 -5.57512,2.026786 -7.5282,6 -3.22866,6.568157 -3.00205,7.59073 1.85423,8.367282 3.76811,0.602544 4.47928,0.359445 7.4926,-2.561181 1.83113,-1.774803 3.58799,-4.041869 3.90412,-5.037925 0.95968,-3.023685 1.94461,-2.079522 4.11065,3.940518 l 2.06943,5.751529 -5.14138,5.748471 L 154.4573,78 l -8.81655,0 -8.81655,0 0.65664,4.25 c 0.36114,2.3375 2.38922,7.929692 4.50683,12.427092 2.11761,4.497401 4.15769,10.638198 4.53352,13.646208 1.03684,8.29857 4.4672,11.84713 14.73586,15.24358 4.53362,1.49954 8.74874,2.91182 9.36693,3.13841 0.61819,0.22658 4.78885,-4.5522 9.26813,-10.61952 l 8.14415,-11.03149 -0.85774,-5.469702 -0.85773,-5.469702 5.3396,-5.273278 C 194.59718,85.941295 197,83.905408 197,84.317404 c 0,0.411996 -1.15656,3.031444 -2.57013,5.820995 -4.6997,9.274402 -1.45967,16.027781 6.93408,14.453101 2.9181,-0.54744 4.11859,-1.63314 7.04975,-6.375647 3.93901,-6.373166 4.40824,-5.552075 1.80202,3.153327 -1.70213,5.68557 -1.91847,5.92938 -6.91527,7.79335 -4.9618,1.85092 -5.62041,2.57923 -17.29971,19.13082 -6.67784,9.46366 -12.89735,17.51252 -13.82113,17.88636 -0.92379,0.37385 -2.91711,0.71135 -4.42961,0.75 -1.5125,0.0387 -2.75,0.33981 -2.75,0.66923 0,0.92438 12.13059,16.85738 13.12094,17.23379 0.97008,0.3687 15.04389,-4.14715 21.52243,-6.90588 3.17546,-1.3522 4.78942,-2.95137 6.90893,-6.84561 1.95756,-3.59667 3.3765,-5.08378 4.85663,-5.08993 1.15009,-0.005 4.56607,-0.25026 7.59107,-0.54552 l 5.5,-0.53682 -6,2.87754 c -6.98754,3.35114 -9.87807,7.70125 -8.27048,12.44663 1.47679,4.35927 6.8542,5.48684 13.72196,2.8773 2.98612,-1.13464 5.60306,-1.88923 5.81542,-1.67687 0.21237,0.21236 -2.11097,2.27143 -5.16297,4.57571 l -5.54908,4.1896 -5.05295,-1.29503 c -5.6583,-1.45018 -4.11446,-1.83819 -31.63981,7.95201 -12.54056,4.46041 -14.34829,4.8692 -16,3.61815 -1.02415,-0.77572 -2.14731,-1.42471 -2.49591,-1.44221 -0.34861,-0.0175 -0.005,3.2307 0.76296,7.2182 2.9394,15.25694 2.99331,14.28212 -0.7889,14.26506 C 160.68662,200.50084 160.5,200.69555 160.5,204 c 0,3.40173 0.12515,3.51404 4.4573,4 4.30588,0.48302 4.49288,0.64685 5.50473,4.82299 0.57609,2.37764 1.8328,4.7625 2.7927,5.29969 0.9599,0.53718 1.74527,1.58056 1.74527,2.3186 0,0.73805 1.1516,1.63094 2.55911,1.9842 3.40864,0.85551 10.85535,7.82082 12.84579,12.01534 0.8773,1.84879 1.5951,5.20593 1.5951,7.46031 0,3.71901 -0.23459,4.09887 -2.53138,4.09887 -1.52995,0 -2.75386,0.69232 -3.09374,1.75 -1.87365,5.83069 -3.08456,7.69127 -6.45904,9.92439 -8.70996,5.76398 -21.27181,1.08732 -23.42615,-8.72135 L 155.84109,246 l -23.45193,0 c -21.45428,0 -23.49983,0.14907 -24.01428,1.75 -2.78061,8.65308 -6.79891,12.32633 -14.167037,12.95049 -3.740647,0.31688 -5.556038,-0.12177 -8.836445,-2.13513 z M 85.75,222.10795 c 2.103093,-2.50724 1.424129,-3.7392 -2.75,-4.9898 -4.404603,-1.31966 -4.75592,-2.37322 -2.551027,-7.65027 1.666252,-3.9879 1.500493,-3.93366 6.121244,-2.00299 3.41653,1.42752 3.530522,1.40034 4.467882,-1.0651 1.693652,-4.45464 1.215369,-5.23923 -3.637412,-5.96695 -4.47219,-0.67065 -4.582748,-0.77254 -4,-3.68628 C 83.730309,195.09845 84,192.86402 84,191.78116 c 0,-1.78158 0.464839,-1.9049 4.887491,-1.29663 l 4.887492,0.6722 0.388618,-4.07505 c 0.379809,-3.98268 0.308684,-4.08823 -3.137491,-4.65628 -1.93936,-0.31968 -3.983678,-0.71678 -4.542929,-0.88245 -0.57507,-0.17036 -0.853091,-2.35983 -0.639949,-5.03973 l 0.376869,-4.73852 4.291731,0.48374 c 4.109916,0.46325 4.317074,0.35703 4.88995,-2.50735 0.992859,-4.9643 0.740455,-5.53904 -2.97033,-6.76371 -2.635802,-0.8699 -3.422722,-1.60896 -3.010639,-2.82755 1.170203,-3.46048 -10.757832,10.69041 -14.897265,17.67344 -5.722536,9.65366 -7.933392,17.92617 -7.316383,27.37622 0.570653,8.74006 3.820658,16.24384 6.646941,15.34682 1.140049,-0.36184 2.768206,0.49381 4.622491,2.42926 2.985233,3.11591 4.037253,2.99042 7.273403,-0.86762 z M 100.36163,152.5 c 0.31658,-0.825 0.19482,-1.5 -0.27057,-1.5 -0.465394,0 -1.406371,0.675 -2.09106,1.5 -1.013429,1.22111 -0.963123,1.5 0.270566,1.5 0.833501,0 1.774474,-0.675 2.091064,-1.5 z m 18.02979,-31.52024 C 120.14526,116.59648 120.55449,110 119.07258,110 116.89101,110 114,115.3962 114,119.46819 c 0,6.82038 1.9928,7.50632 4.39142,1.51157 z M 118.13636,107 c 0.475,0 0.86364,-1.1801 0.86364,-2.62244 0,-2.27184 -0.21032,-2.4479 -1.57309,-1.3169 -0.8652,0.71805 -2.50078,3.13565 -3.63463,5.37244 l -2.06155,4.0669 2.771,-2.75 c 1.52405,-1.5125 3.15963,-2.75 3.63463,-2.75 z m 62.11995,-47.151234 c -2.33402,-0.408275 -5.03402,-1.246226 -6,-1.862113 -1.44259,-0.919774 -1.18224,-1.024348 1.45757,-0.585448 3.1426,0.522495 3.18783,0.477185 2.03957,-2.042976 -1.70793,-3.748508 0.90409,-5.307564 8.67051,-5.17522 3.78649,0.06452 7.27796,-0.486907 9.08812,-1.435346 l 2.93943,-1.540123 -6.61006,-0.707877 c -3.63554,-0.389333 -7.56213,-0.405705 -8.72576,-0.03638 -2.68632,0.852606 -2.76792,-0.953994 -0.2178,-4.821983 2.32428,-3.525447 5.23686,-5.53549 16.10211,-11.11246 11.61336,-5.960963 16.27423,-9.712704 7.71788,-6.212462 -1.76983,0.724006 -7.22821,2.382537 -12.12973,3.685624 -8.21947,2.185178 -9.4145,2.839456 -15.38169,8.421476 l -6.46985,6.052228 0.72278,-3.487852 C 173.85692,37.069533 175.35711,33.025 176.79314,30 c 1.43603,-3.025 2.80677,-5.95 3.04609,-6.5 0.23932,-0.55 -0.76692,0.105325 -2.23608,1.456277 -3.1332,2.881112 -9.25693,14.681278 -10.18434,19.624818 -1.04348,5.562209 -2.38297,4.955915 -1.76487,-0.798835 1.12307,-10.456316 7.04262,-19.330501 17.29184,-25.922754 C 185.39096,16.286778 187.74355,15 188.17376,15 c 0.4302,0 -0.55281,2.105084 -2.18449,4.677965 -1.63167,2.572881 -2.81981,4.824832 -2.6403,5.004336 0.1795,0.179505 1.74139,-0.379535 3.47086,-1.242309 1.72948,-0.862774 8.41137,-2.66086 14.84865,-3.995746 9.40648,-1.950602 12.25651,-2.95626 14.51783,-5.122747 L 219,11.625818 l 0,3.219209 c 0,7.226311 -5.56066,14.532618 -16.64823,21.874576 L 196.64274,40.5 l 6.33254,0.5 6.33254,0.5 -2.78417,3.299162 c -4.00933,4.750938 -11.83057,8.429245 -18.23987,8.578158 -2.90411,0.06747 -5.281,0.264764 -5.28199,0.438421 C 182.99263,55.430375 185.4696,58 187.03518,58 188.11583,58 189,58.39754 189,58.883423 c 0,1.34805 -4.01912,1.791779 -8.74369,0.965343 z"
       id="path3188"
       style="fill:#d89fa0" />
    <path
       d="M 85.371398,258.56536 C 81.431873,256.14747 78,251.04185 78,247.59887 78,246.53676 77.112171,246 75.355395,246 c -2.644595,0 -2.644602,-2e-5 -2.050527,-6.36184 0.571708,-6.12229 0.477032,-6.48156 -2.514265,-9.54113 -2.265374,-2.31708 -2.809272,-3.47836 -2.005555,-4.28208 0.803716,-0.80371 0.450817,-2.38939 -1.301272,-5.84697 -4.87513,-9.6206 -5.055715,-23.36888 -0.460096,-35.02806 4.808314,-12.19879 17.86561,-28.07464 29.300827,-35.62571 l 4.824503,-3.18579 -3.074503,-1.58989 C 96.383528,143.66409 95,142.71727 95,142.43448 95,141.55148 99.016719,134 99.486397,134 c 0.245162,0 2.044873,0.76257 3.999363,1.6946 3.28976,1.56878 3.67506,1.57315 5.18927,0.0589 1.51421,-1.51421 1.40137,-1.90249 -1.51969,-5.22939 -3.69526,-4.20867 -3.84379,-5.07726 -1.15534,-6.75622 1.51667,-0.94718 2.00236,-2.33879 2.00977,-5.75848 0.0114,-5.24409 3.5335,-13.41244 7.26351,-16.84511 2.07238,-1.907167 2.39339,-2.839805 1.74983,-5.083766 C 115.47582,90.685488 114.9384,81.46082 115.96976,78 c 0.84208,-2.825664 0.7528,-3.713908 -0.46336,-4.610243 C 114.49714,72.645913 114,70.54865 114,67.034722 l 0,-5.244793 3.93661,0.375416 c 3.82971,0.365222 3.99658,0.247389 6.14479,-4.339129 1.21449,-2.593 3.71802,-6.177947 5.56339,-7.966548 1.84536,-1.788601 3.35521,-4.07785 3.35521,-5.08722 0,-2.173892 2.69734,-3.475106 4.1638,-2.008644 0.70583,0.705825 4.61924,-0.242128 12.45071,-3.015956 6.28174,-2.224929 11.58571,-3.865893 11.7866,-3.646587 0.20089,0.219307 0.66692,1.808137 1.03561,3.530735 0.95604,4.466764 -2.68063,8.410799 -9.59949,10.410838 -4.75772,1.375315 -5.57512,2.026786 -7.5282,6 -3.22866,6.568157 -3.00205,7.59073 1.85423,8.367282 3.76811,0.602544 4.47928,0.359445 7.4926,-2.561181 1.83113,-1.774803 3.58799,-4.041869 3.90412,-5.037925 0.95968,-3.023685 1.94461,-2.079522 4.11065,3.940518 l 2.06943,5.751529 -5.14138,5.748471 L 154.4573,78 l -8.81655,0 -8.81655,0 0.65664,4.25 c 0.36114,2.3375 2.38922,7.929692 4.50683,12.427092 2.11761,4.497401 4.15769,10.638198 4.53352,13.646208 1.03684,8.29857 4.4672,11.84713 14.73586,15.24358 4.53362,1.49954 8.74874,2.91182 9.36693,3.13841 0.61819,0.22658 4.78885,-4.5522 9.26813,-10.61952 l 8.14415,-11.03149 -0.85774,-5.469702 -0.85773,-5.469702 5.3396,-5.273278 C 194.59718,85.941295 197,83.905408 197,84.317404 c 0,0.411996 -1.15656,3.031444 -2.57013,5.820995 -4.6997,9.274402 -1.45967,16.027781 6.93408,14.453101 2.9181,-0.54744 4.11859,-1.63314 7.04975,-6.375647 3.93901,-6.373166 4.40824,-5.552075 1.80202,3.153327 -1.70213,5.68557 -1.91847,5.92938 -6.91527,7.79335 -4.9618,1.85092 -5.62041,2.57923 -17.29971,19.13082 -6.67784,9.46366 -12.89735,17.51252 -13.82113,17.88636 -0.92379,0.37385 -2.91711,0.71135 -4.42961,0.75 -1.5125,0.0387 -2.75,0.33981 -2.75,0.66923 0,0.92438 12.13059,16.85738 13.12094,17.23379 0.97008,0.3687 15.04389,-4.14715 21.52243,-6.90588 3.17546,-1.3522 4.78942,-2.95137 6.90893,-6.84561 1.95756,-3.59667 3.3765,-5.08378 4.85663,-5.08993 1.15009,-0.005 4.56607,-0.25026 7.59107,-0.54552 l 5.5,-0.53682 -6,2.87754 c -6.98754,3.35114 -9.87807,7.70125 -8.27048,12.44663 1.47679,4.35927 6.8542,5.48684 13.72196,2.8773 2.98612,-1.13464 5.60306,-1.88923 5.81542,-1.67687 0.21237,0.21236 -2.11097,2.27143 -5.16297,4.57571 l -5.54908,4.1896 -5.05295,-1.29503 c -5.6583,-1.45018 -4.11446,-1.83819 -31.63981,7.95201 -12.54056,4.46041 -14.34829,4.8692 -16,3.61815 -1.02415,-0.77572 -2.14731,-1.42471 -2.49591,-1.44221 -0.34861,-0.0175 -0.005,3.2307 0.76296,7.2182 2.9394,15.25694 2.99331,14.28212 -0.7889,14.26506 C 160.68662,200.50084 160.5,200.69555 160.5,204 c 0,3.40173 0.12515,3.51404 4.4573,4 4.30588,0.48302 4.49288,0.64685 5.50473,4.82299 0.57609,2.37764 1.8328,4.7625 2.7927,5.29969 0.9599,0.53718 1.74527,1.58056 1.74527,2.3186 0,0.73805 1.1516,1.63094 2.55911,1.9842 3.40864,0.85551 10.85535,7.82082 12.84579,12.01534 0.8773,1.84879 1.5951,5.20593 1.5951,7.46031 0,3.71901 -0.23459,4.09887 -2.53138,4.09887 -1.52995,0 -2.75386,0.69232 -3.09374,1.75 -1.87365,5.83069 -3.08456,7.69127 -6.45904,9.92439 -8.70996,5.76398 -21.27181,1.08732 -23.42615,-8.72135 L 155.84109,246 l -23.45193,0 c -21.45428,0 -23.49983,0.14907 -24.01428,1.75 -2.78061,8.65308 -6.79891,12.32633 -14.167037,12.95049 -3.740647,0.31688 -5.556038,-0.12177 -8.836445,-2.13513 z M 85.75,222.10795 c 2.103093,-2.50724 1.424129,-3.7392 -2.75,-4.9898 -4.404603,-1.31966 -4.75592,-2.37322 -2.551027,-7.65027 1.666252,-3.9879 1.500493,-3.93366 6.121244,-2.00299 3.41653,1.42752 3.530522,1.40034 4.467882,-1.0651 1.693652,-4.45464 1.215369,-5.23923 -3.637412,-5.96695 -4.47219,-0.67065 -4.582748,-0.77254 -4,-3.68628 C 83.730309,195.09845 84,192.86402 84,191.78116 c 0,-1.78158 0.464839,-1.9049 4.887491,-1.29663 l 4.887492,0.6722 0.388618,-4.07505 c 0.379809,-3.98268 0.308684,-4.08823 -3.137491,-4.65628 -1.93936,-0.31968 -3.983678,-0.71678 -4.542929,-0.88245 -0.57507,-0.17036 -0.853091,-2.35983 -0.639949,-5.03973 l 0.376869,-4.73852 4.291731,0.48374 c 4.109916,0.46325 4.317074,0.35703 4.88995,-2.50735 0.992859,-4.9643 0.740455,-5.53904 -2.97033,-6.76371 -2.635802,-0.8699 -3.422722,-1.60896 -3.010639,-2.82755 1.170203,-3.46048 -10.757832,10.69041 -14.897265,17.67344 -5.722536,9.65366 -7.933392,17.92617 -7.316383,27.37622 0.570653,8.74006 3.820658,16.24384 6.646941,15.34682 1.140049,-0.36184 2.768206,0.49381 4.622491,2.42926 2.985233,3.11591 4.037253,2.99042 7.273403,-0.86762 z M 100.36163,152.5 c 0.31658,-0.825 0.19482,-1.5 -0.27057,-1.5 -0.465394,0 -1.406371,0.675 -2.09106,1.5 -1.013429,1.22111 -0.963123,1.5 0.270566,1.5 0.833501,0 1.774474,-0.675 2.091064,-1.5 z m 18.02979,-31.52024 C 120.14526,116.59648 120.55449,110 119.07258,110 116.89101,110 114,115.3962 114,119.46819 c 0,6.82038 1.9928,7.50632 4.39142,1.51157 z M 118.13636,107 c 0.475,0 0.86364,-1.1801 0.86364,-2.62244 0,-2.27184 -0.21032,-2.4479 -1.57309,-1.3169 -0.8652,0.71805 -2.50078,3.13565 -3.63463,5.37244 l -2.06155,4.0669 2.771,-2.75 c 1.52405,-1.5125 3.15963,-2.75 3.63463,-2.75 z M 178.5,59 c -1.74007,-0.747733 -1.76956,-0.868564 -0.22695,-0.929715 1.67057,-0.06622 1.67643,-0.217754 0.10135,-2.621632 -0.97642,-1.490208 -1.29795,-2.905182 -0.77305,-3.402091 0.49426,-0.467909 4.27365,-1.046695 8.39865,-1.286191 4.125,-0.239495 8.85,-1.030425 10.5,-1.757622 l 3,-1.322176 -3,-0.721972 c -1.65,-0.397084 -5.5875,-0.775213 -8.75,-0.840286 -4.25126,-0.08748 -5.75,-0.489292 -5.75,-1.54159 0,-3.133307 5.59212,-7.708507 15.81036,-12.935264 5.91303,-3.024593 11.63717,-6.497 12.72031,-7.71646 1.36217,-1.533623 1.50687,-2.040076 0.46933,-1.642693 -2.839,1.087351 -14.50944,4.690641 -20,6.175073 -4.16719,1.126643 -6.91556,2.800937 -11.34147,6.909157 l -5.84147,5.422173 0.66949,-3.644355 c 0.36823,-2.004396 1.94111,-6.006856 3.49529,-8.894356 1.55419,-2.8875 2.50735,-5.25 2.11814,-5.25 -2.14658,0 -7.7378,7.868183 -10.76277,15.145789 -3.33227,8.016911 -3.45547,8.170902 -3.05133,3.814041 0.51886,-5.593616 2.78973,-10.519894 7.25305,-15.734276 C 176.5447,22.713983 185.58493,16 187.30741,16 c 0.34777,0 -0.47912,1.637796 -1.83755,3.639547 -3.6112,5.321407 -3.22802,6.48464 1.38439,4.202602 2.11984,-1.048812 8.88032,-2.846608 15.02331,-3.995103 9.19258,-1.718649 11.69581,-2.580235 14.14575,-4.868819 L 219,12.19758 l 0,2.433329 c 0,6.613037 -6.26276,14.699265 -16.60152,21.435233 -5.46654,3.561594 -6.27077,4.425822 -4.85557,5.217812 0.93288,0.522063 3.66736,0.727022 6.07662,0.455463 C 206.02879,41.467859 208,41.588035 208,42.006475 c 0,1.277559 -7.93304,8.013514 -10.80228,9.172228 C 195.71398,51.7779 191.575,52.546466 188,52.886628 l -6.5,0.618477 3.17308,3.247447 L 187.84615,60 184.17308,59.929715 C 182.15288,59.891058 179.6,59.472686 178.5,59 z"
       id="path3186"
       style="fill:#a2a2a2" />
    <path
       d="m 87.450423,259.5934 c -3.87668,-1.68857 -8.087342,-6.66382 -8.945162,-10.56945 C 77.989227,246.67447 77.301209,246 75.420545,246 73.329613,246 73,245.53226 73,242.5651 c 0,-1.8892 0.467577,-4.66472 1.03906,-6.16784 0.928929,-2.44326 0.663541,-3.1175 -2.503872,-6.36122 -2.459918,-2.51919 -3.224022,-3.94721 -2.499662,-4.67157 0.724361,-0.72436 0.190599,-2.6972 -1.746128,-6.45387 -2.570515,-4.98603 -2.784939,-6.27377 -2.732574,-16.4106 0.04626,-8.95587 0.474763,-12.06058 2.305858,-16.70726 4.891642,-12.41327 17.581109,-28.09344 29.012485,-35.85025 2.790294,-1.89337 5.084863,-3.7254 5.099043,-4.07117 C 100.9884,145.52555 99.65,144.68345 98,144 c -1.65,-0.68345 -3,-1.46428 -3,-1.73517 0,-0.27088 0.968393,-2.21554 2.151985,-4.32146 l 2.151986,-3.82894 3.944919,2.01254 c 2.16971,1.10691 4.02865,1.86866 4.13098,1.69279 0.10234,-0.17587 0.77998,-1.0966 1.50589,-2.04608 1.14039,-1.49162 0.87986,-2.2818 -1.91641,-5.81238 l -3.23623,-4.08607 2.13344,-1.49432 c 1.5444,-1.08174 2.13344,-2.54834 2.13344,-5.31189 0,-5.38746 2.45485,-11.69775 6.44505,-16.56727 3.1517,-3.846226 3.34777,-4.477792 2.51068,-8.086901 -1.22574,-5.284686 -1.1923,-16.104302 0.057,-18.438603 0.8033,-1.500976 0.59651,-2.115015 -1,-2.969442 C 114.39995,72.143678 114,70.916907 114,66.833147 l 0,-5.096485 4.07218,0.546193 c 4.05349,0.543688 4.08129,0.524796 6.06013,-4.118331 C 125.22569,55.599036 127.6193,51.925 129.45144,50 c 1.83215,-1.925 3.629,-4.492274 3.99299,-5.705052 0.55065,-1.83468 1.05411,-2.055903 2.99736,-1.317079 1.76504,0.671067 5.05807,-0.07101 13.48097,-3.037903 7.97687,-2.809786 11.25259,-3.572516 11.52242,-2.682922 2.02283,6.669234 -0.34515,10.04745 -8.79249,12.543542 -5.75801,1.701426 -5.88399,1.817968 -8.24907,7.631208 -1.32097,3.246867 -2.28152,6.023636 -2.13456,6.170599 0.14696,0.146963 2.5342,0.567932 5.30497,0.935488 4.87843,0.647146 5.1388,0.553218 8.23187,-2.969595 1.75676,-2.000833 3.1941,-4.323778 3.1941,-5.162099 0,-2.994955 1.94876,-0.244521 3.64948,5.150796 l 1.73021,5.488835 -4.80681,4.880186 -4.8068,4.880186 -8.88304,0.703067 C 138.43783,78.098524 137,78.489486 137,79.924661 c 0,3.283685 3.18629,12.613439 6.08253,17.81019 1.60461,2.879169 2.91998,6.479169 2.92305,7.999999 0.0192,9.54629 4.55773,14.46439 17.34051,18.79097 7.58287,2.56656 8.9071,2.7686 9.66226,1.47418 0.4813,-0.825 4.06,-5.775 7.95266,-11 l 7.07757,-9.5 -0.59187,-6 -0.59187,-6 5.17405,-5 5.17406,-5 -2.96057,6 c -1.62832,3.3 -2.83834,6.45 -2.68895,7 0.1494,0.55 0.5307,2.182282 0.84735,3.62729 0.31665,1.44502 1.65145,3.33214 2.96623,4.19361 3.94291,2.5835 8.9529,0.41403 12.76589,-5.52801 1.71841,-2.677914 3.28997,-4.703353 3.49235,-4.500976 0.55774,0.55774 -2.67229,11.067706 -3.74565,12.187696 -0.51635,0.53878 -2.83799,1.70774 -5.15921,2.59768 -3.73042,1.43023 -5.67914,3.6384 -16.78551,19.0204 -11.98929,16.60481 -12.7569,17.44319 -16.75,18.29439 -2.30168,0.49065 -4.18488,1.19906 -4.18488,1.57426 0,0.3752 2.50847,4.02377 5.57437,8.10792 3.06591,4.08416 5.90557,8.00481 6.31037,8.71257 0.56556,0.98884 3.73663,0.22734 13.69434,-3.28855 l 12.95835,-4.57537 2.74614,-4.88527 c 2.87705,-5.11814 3.34798,-5.35739 12.71643,-6.4604 l 4.5,-0.52982 -5.6099,2.57088 c -10.012,4.58827 -11.58808,13.89387 -2.79916,16.52709 3.30801,0.99111 4.6325,0.85533 9.38047,-0.96162 3.04073,-1.16361 5.52859,-1.96005 5.52859,-1.76986 0,0.19019 -2.47771,2.21649 -5.50603,4.50289 l -5.50603,4.1571 -4.97752,-1.47817 -4.97752,-1.47816 -20.26645,7.28462 c -18.79937,6.75729 -20.43159,7.17757 -22.54766,5.80576 -1.25466,-0.81338 -2.5409,-1.21917 -2.8583,-0.90177 -0.31741,0.3174 0.37164,4.89103 1.5312,10.1636 1.15957,5.27258 2.10831,9.79884 2.10831,10.05836 0,0.25952 -1.575,0.47186 -3.5,0.47186 -3.40857,0 -3.5,0.10307 -3.5,3.94521 l 0,3.94521 4.72311,0.30479 c 4.70146,0.30339 4.727,0.32455 5.5704,4.61319 0.46601,2.36962 1.49061,4.55526 2.27689,4.85699 0.78628,0.30172 1.4296,1.16786 1.4296,1.92475 0,0.75689 2.19138,2.48663 4.86974,3.84385 C 186.7515,227.42798 192,235.03631 192,242.46788 192,245.69555 191.75101,246 189.11129,246 c -2.49737,0 -2.97572,0.4638 -3.53098,3.42361 -0.71628,3.81808 -6.03471,9.15036 -10.15905,10.18551 -3.90428,0.97991 -10.00487,-0.17644 -13.29655,-2.52032 -1.656,-1.17917 -3.72681,-4.09851 -4.68269,-6.60144 L 155.72828,246 l -23.75285,0 -23.75285,0 -0.63376,3.37822 c -0.77598,4.13634 -4.42826,8.23892 -9.055952,10.17249 -4.238012,1.77076 -7.089886,1.78174 -11.082445,0.0427 z m -4.134682,-34.7431 c 5.151705,-2.71165 5.006594,-6.37384 -0.315741,-7.96845 -4.432698,-1.32806 -4.674205,-2.024 -2.504457,-7.21694 l 1.495543,-3.57934 4.160446,1.46789 c 2.288246,0.80734 4.230871,1.35059 4.316945,1.20722 0.08607,-0.14338 0.645134,-1.93637 1.242356,-3.98444 l 1.085858,-3.72375 -3.648346,-0.60416 c -5.888246,-0.97508 -5.851703,-0.93586 -5.219913,-5.60173 L 84.51699,190.5 89.758495,190.84186 95,191.18372 95,187.19885 C 95,182.8779 93.973003,182 88.918213,182 c -2.520149,0 -2.91635,-0.37512 -2.904558,-2.75 0.03055,-6.15312 0.888851,-7.28043 5.333334,-7.00488 l 4.111173,0.25488 0.585954,-4.23349 c 0.566815,-4.09521 0.477674,-4.26923 -2.729081,-5.32755 -1.957624,-0.64608 -3.332725,-1.77888 -3.358238,-2.76651 -0.02723,-1.0543 -2.44006,0.8757 -6.528047,5.22172 -7.976821,8.48032 -14.920728,21.87345 -16.386599,31.60583 -1.545775,10.26288 2.495609,25.15883 6.417475,23.65387 0.720912,-0.27664 2.571605,0.81307 4.112653,2.42157 3.228233,3.36955 2.90409,3.26939 5.743462,1.77486 z M 100.28975,153 c 0.28766,-1.1 0.17024,-2 -0.26092,-2 -1.240069,0 -3.081134,2.61436 -2.353487,3.34201 1.17008,1.17008 2.079564,0.70323 2.614407,-1.34201 z m 19.68403,-38.75 C 119.9882,111.9125 119.55,110 119,110 c -2.08939,0 -4.81563,3.94922 -5.49269,7.9567 -0.56075,3.31909 -0.32879,4.58308 1.13861,6.20454 1.83385,2.02638 1.85126,2.01754 3.57223,-1.81247 0.95117,-2.11682 1.7412,-5.76127 1.75563,-8.09877 z m -1.03624,-7.40435 c 0.55628,-0.19011 0.74072,-1.37614 0.40986,-2.63563 -0.58153,-2.21367 -0.66739,-2.23041 -2.57686,-0.50236 -1.87165,1.69381 -4.77054,6.4528 -4.77054,7.83157 0,0.35121 1.33337,-0.4834 2.96305,-1.85469 1.62968,-1.37128 3.4182,-2.64878 3.97449,-2.83889 z M 178.5,59 c -1.74007,-0.747733 -1.76956,-0.868564 -0.22695,-0.929715 1.67057,-0.06622 1.67643,-0.217754 0.10135,-2.621632 -0.97642,-1.490208 -1.29795,-2.905182 -0.77305,-3.402091 0.49426,-0.467909 4.27365,-1.046695 8.39865,-1.286191 4.125,-0.239495 8.85,-1.030425 10.5,-1.757622 l 3,-1.322176 -3,-0.721972 c -1.65,-0.397084 -5.5875,-0.775213 -8.75,-0.840286 -4.25126,-0.08748 -5.75,-0.489292 -5.75,-1.54159 0,-3.133307 5.59212,-7.708507 15.81036,-12.935264 5.91303,-3.024593 11.63717,-6.497 12.72031,-7.71646 1.36217,-1.533623 1.50687,-2.040076 0.46933,-1.642693 -2.839,1.087351 -14.50944,4.690641 -20,6.175073 -4.16719,1.126643 -6.91556,2.800937 -11.34147,6.909157 l -5.84147,5.422173 0.66949,-3.644355 c 0.36823,-2.004396 1.94111,-6.006856 3.49529,-8.894356 1.55419,-2.8875 2.50735,-5.25 2.11814,-5.25 -2.14658,0 -7.7378,7.868183 -10.76277,15.145789 -3.33227,8.016911 -3.45547,8.170902 -3.05133,3.814041 0.51886,-5.593616 2.78973,-10.519894 7.25305,-15.734276 C 176.5447,22.713983 185.58493,16 187.30741,16 c 0.34777,0 -0.47912,1.637796 -1.83755,3.639547 -3.6112,5.321407 -3.22802,6.48464 1.38439,4.202602 2.11984,-1.048812 8.88032,-2.846608 15.02331,-3.995103 9.19258,-1.718649 11.69581,-2.580235 14.14575,-4.868819 L 219,12.19758 l 0,2.433329 c 0,6.613037 -6.26276,14.699265 -16.60152,21.435233 -5.46654,3.561594 -6.27077,4.425822 -4.85557,5.217812 0.93288,0.522063 3.66736,0.727022 6.07662,0.455463 C 206.02879,41.467859 208,41.588035 208,42.006475 c 0,1.277559 -7.93304,8.013514 -10.80228,9.172228 C 195.71398,51.7779 191.575,52.546466 188,52.886628 l -6.5,0.618477 3.17308,3.247447 L 187.84615,60 184.17308,59.929715 C 182.15288,59.891058 179.6,59.472686 178.5,59 z"
       id="path3184"
       style="fill:#5f5f5f" />
    <path
       d="m 88.5,259.50598 c -4.607907,-1.62517 -9.021025,-6.3611 -9.866437,-10.58816 C 78.215837,246.82919 77.465616,246 75.993615,246 c -2.833486,0 -3.42773,-2.21889 -2.054632,-7.67196 1.15592,-4.59057 1.132986,-4.67001 -2.389803,-8.27768 -2.437509,-2.49623 -3.233168,-3.96637 -2.528193,-4.67135 0.704974,-0.70497 0.209614,-2.81791 -1.573997,-6.71383 -6.112695,-13.35189 -3.737032,-29.93143 6.521445,-45.51261 5.667692,-8.60843 15.614131,-18.86264 23.104775,-23.81972 2.159735,-1.42924 3.92679,-2.91659 3.92679,-3.30522 0,-0.38863 -1.125,-1.21918 -2.5,-1.84568 -2.909612,-1.3257 -3.049289,-2.21906 -0.97432,-6.23161 1.772198,-3.42705 2.59987,-3.57658 6.64428,-1.20034 2.86889,1.68558 3.03102,1.67854 4.40429,-0.19113 1.93847,-2.63918 1.85793,-2.99705 -1.54715,-6.87522 l -2.9729,-3.38594 2.4729,-2.32317 c 1.97471,-1.85514 2.4729,-3.30536 2.4729,-7.19851 0,-5.52082 1.85894,-9.83676 6.21535,-14.43031 2.912,-3.070521 2.96213,-3.290904 1.88804,-8.299222 -1.36183,-6.34999 -1.42161,-14.079313 -0.13507,-17.46317 0.79886,-2.101155 0.62385,-2.731224 -1,-3.600283 C 114.41137,72.149789 114,70.879211 114,66.903543 l 0,-5.026089 4.25,0.609066 4.25,0.609065 2.38637,-5.576804 c 1.31251,-3.067242 3.62497,-6.458763 5.13881,-7.536713 1.51384,-1.07795 3.04822,-3.138389 3.40973,-4.578754 0.55456,-2.209549 1.07988,-2.536685 3.36119,-2.093159 1.6771,0.326057 6.47944,-0.784881 12.64613,-2.925459 5.46822,-1.898129 10.53072,-3.225316 11.25,-2.949304 1.75986,0.675323 1.60343,5.585929 -0.25691,8.064608 -0.82559,1.1 -4.27959,2.9 -7.67554,4 -6.03263,1.954056 -6.23077,2.132288 -8.62518,7.75861 -1.34789,3.167235 -2.23152,5.977799 -1.96363,6.245696 0.2679,0.267898 2.61353,0.778548 5.21251,1.134778 4.40072,0.603185 4.96219,0.418213 8.17097,-2.691863 C 157.4495,60.110466 159,58.020941 159,57.303833 c 0,-2.781446 1.7426,-1.106311 2.91304,2.800254 0.67629,2.257248 1.44317,4.660607 1.70418,5.340798 0.26102,0.680191 -1.61278,3.558352 -4.16399,6.395913 L 154.81466,77 l -8.20733,0 c -4.55901,0 -8.68888,0.481554 -9.29064,1.083312 -1.49819,1.498192 0.93773,10.469309 5.11757,18.847147 1.85096,3.709971 3.54848,8.947661 3.89986,12.033001 0.86829,7.62416 5.17692,11.67655 16.81337,15.81347 l 8.64749,3.0743 8.21775,-11.04869 8.21775,-11.04869 -0.63873,-5.64566 -0.63873,-5.645663 4.65412,-4.481263 L 196.26126,85.5 193.68788,90 c -7.32724,12.81297 5.89353,22.14516 14.00597,9.88644 1.42935,-2.159903 2.77244,-3.753485 2.98463,-3.541293 0.21219,0.212192 -0.18813,2.531679 -0.88961,5.154413 -1.18754,4.4401 -1.65477,4.93574 -6.78214,7.19448 -5.24614,2.31106 -6.09131,3.25117 -17.85968,19.86591 -11.50864,16.24804 -12.56805,17.4411 -15.5,17.45536 -6.10413,0.0297 -6.01057,1.05648 0.96002,10.5356 3.61946,4.922 6.88415,9.06429 7.25487,9.20509 0.37073,0.1408 6.29095,-1.71532 13.15606,-4.12471 11.65553,-4.09066 12.63271,-4.63731 14.75811,-8.256 1.25185,-2.13141 2.60279,-4.40749 3.00207,-5.05796 0.39928,-0.65047 3.20003,-1.43899 6.22389,-1.75227 l 5.49793,-0.5696 -4.08219,1.96693 c -5.42476,2.61383 -8.31437,8.42036 -6.27251,12.6043 0.82286,1.68613 2.72875,3.2436 4.8547,3.96721 2.9564,1.00628 4.2435,0.90201 8.28702,-0.6713 6.59218,-2.56498 6.64479,-2.41186 0.70491,2.05128 l -5.20889,3.91389 -5.00703,-1.48693 c -4.81993,-1.43136 -5.27365,-1.38732 -12.14152,1.17856 -3.92397,1.46602 -12.952,4.69865 -20.06228,7.18363 -12.56365,4.39087 -13.00729,4.47118 -15.75,2.85102 C 163.03464,177.90739 163,177.91754 163,180.38141 c 0,2.21386 2.21617,13.17114 3.61402,17.86859 0.4276,1.43695 -0.1174,1.75 -3.04663,1.75 C 160.0721,200 160,200.08085 160,204 l 0,4 4.48095,0 c 4.07328,0 4.53662,0.25019 5.09294,2.75 1.20904,5.43277 1.61414,6.34985 3.8895,8.805 1.26948,1.36979 4.23666,3.51035 6.59372,4.7568 5.46284,2.88882 9.51421,7.93802 11.06,13.784 1.47131,5.56431 0.74286,7.9042 -2.46073,7.9042 -1.83072,0 -2.53922,0.66421 -2.96169,2.77654 C 184.46636,254.91822 177.80493,260 170.98246,260 c -5.76909,0 -12.36926,-5.05862 -13.85542,-10.6193 l -0.7699,-2.8807 -24.01507,-0.26741 -24.01506,-0.26741 -1.17586,3.92467 C 105.861,254.19599 100.06043,260 97.046991,260 c -1.035879,0 -2.48272,0.20627 -3.215204,0.45837 C 93.099304,260.71048 90.7,260.2819 88.5,259.50598 z m -3.856499,-35.27822 c 1.178925,-0.95027 2.433848,-2.69961 2.788718,-3.88743 0.547689,-1.83322 0.07253,-2.34274 -3.143501,-3.3708 -5.312027,-1.69809 -5.626807,-2.22461 -3.859191,-6.45511 1.31901,-3.15683 1.921938,-3.65008 3.818404,-3.12378 6.633773,1.84099 6.319314,1.92604 7.535988,-2.03824 1.315019,-4.28473 0.550431,-5.31134 -3.974902,-5.33709 -3.452345,-0.0196 -4.122093,-1.20275 -3.331129,-5.88443 l 0.641283,-3.79572 4.52756,0.68711 c 5.096741,0.77349 5.687173,0.18268 5.173728,-5.17707 -0.289452,-3.02153 -0.65911,-3.37629 -3.820459,-3.6665 -4.657342,-0.42754 -5.190503,-1.13517 -4.43151,-5.88165 l 0.644011,-4.02742 4.39375,0.49524 c 4.096984,0.46179 4.394671,0.33448 4.407404,-1.88482 0.0075,-1.30903 0.272423,-3.34448 0.588696,-4.52323 0.476362,-1.77539 -0.04079,-2.34641 -3.013655,-3.32755 C 91.614913,162.37787 90,161.17928 90,160.36574 90,155.91171 77.255913,170.93719 72.074661,181.5 c -6.878841,14.02361 -7.64028,24.73578 -2.504428,35.23308 1.956193,3.99831 2.932488,5.09459 3.855111,4.32888 0.894,-0.74196 2.025135,-0.2012 4.092176,1.95633 3.289468,3.43346 4.179453,3.58452 7.125981,1.20947 z m 15.749509,-70.80955 c 1.13515,-2.95815 0.61146,-3.46724 -1.884424,-1.83188 -1.370278,0.89784 -2.24372,2.03322 -1.940983,2.52305 0.887364,1.43579 3.167293,1.02385 3.825407,-0.69117 z m 18.13791,-31.14646 c 0.90455,-2.16489 1.43434,-5.80235 1.26342,-8.67448 l -0.29434,-4.94622 -2.78376,2.42447 c -3.35012,2.91774 -4.62796,8.85241 -2.68698,12.47916 1.78571,3.33662 2.67771,3.0824 4.50166,-1.28293 z m -1.6064,-13.73272 c 3.14358,-1.62561 3.70278,-3.00085 2.19052,-5.38713 -1.65852,-2.61707 -8.1822,6.7259 -8.0759,11.56598 0.0237,1.08084 0.5843,0.52868 1.42452,-1.40317 0.76195,-1.7519 2.76934,-3.90096 4.46086,-4.77568 z M 178.5,59 c -1.74007,-0.747733 -1.76956,-0.868564 -0.22695,-0.929715 1.66684,-0.06607 1.6737,-0.221923 0.11454,-2.601493 -0.91218,-1.392165 -1.33969,-2.850029 -0.95002,-3.239698 0.38967,-0.38967 4.16313,-0.988829 8.38546,-1.331467 C 190.04536,50.55499 194.85,49.690983 196.5,48.977612 l 3,-1.297039 -3,-0.721972 c -1.65,-0.397084 -5.5875,-0.775213 -8.75,-0.840286 -4.25126,-0.08748 -5.75,-0.489292 -5.75,-1.54159 0,-3.133307 5.59212,-7.708507 15.81036,-12.935264 5.91303,-3.024593 11.63717,-6.497 12.72031,-7.71646 1.36217,-1.533623 1.50687,-2.040076 0.46933,-1.642693 -2.839,1.087351 -14.50944,4.690641 -20,6.175073 -4.16719,1.126643 -6.91556,2.800937 -11.34147,6.909157 l -5.84147,5.422173 0.66949,-3.644355 c 0.36823,-2.004396 1.94111,-6.006856 3.49529,-8.894356 1.55419,-2.8875 2.50735,-5.25 2.11814,-5.25 -2.14658,0 -7.7378,7.868183 -10.76277,15.145789 -3.33227,8.016911 -3.45547,8.170902 -3.05133,3.814041 0.51886,-5.593616 2.78973,-10.519894 7.25305,-15.734276 C 176.5447,22.713983 185.58493,16 187.30741,16 c 0.34777,0 -0.47912,1.637796 -1.83755,3.639547 -3.62107,5.335957 -3.22553,6.483409 1.43933,4.175421 2.15005,-1.063762 8.70432,-2.798834 14.56503,-3.855717 11.43747,-2.062556 11.86247,-2.209521 15.27578,-5.282331 l 2.25,-2.025548 0,2.206433 c 0,6.380689 -6.4082,14.567132 -16.60152,21.208337 -5.46654,3.561594 -6.27077,4.425822 -4.85557,5.217812 0.93288,0.522063 3.66736,0.727022 6.07662,0.455463 C 206.02879,41.467859 208,41.552123 208,41.92667 c 0,1.25123 -6.45702,6.827486 -10,8.635957 -1.925,0.982594 -6.425,2.046621 -10,2.364506 l -6.5,0.577972 3.17308,3.247447 L 187.84615,60 184.17308,59.929715 C 182.15288,59.891058 179.6,59.472686 178.5,59 z"
       id="path3182"
       style="fill:#a2191d" />
    <path
       d="m 88.5,259.50598 c -4.607907,-1.62517 -9.021025,-6.3611 -9.866437,-10.58816 C 78.215837,246.82919 77.465616,246 75.993615,246 c -2.833486,0 -3.42773,-2.21889 -2.054632,-7.67196 1.15592,-4.59057 1.132986,-4.67001 -2.389803,-8.27768 -2.437509,-2.49623 -3.233168,-3.96637 -2.528193,-4.67135 0.704974,-0.70497 0.209614,-2.81791 -1.573997,-6.71383 -6.112695,-13.35189 -3.737032,-29.93143 6.521445,-45.51261 5.667692,-8.60843 15.614131,-18.86264 23.104775,-23.81972 2.159735,-1.42924 3.92679,-2.91659 3.92679,-3.30522 0,-0.38863 -1.125,-1.21918 -2.5,-1.84568 -2.909612,-1.3257 -3.049289,-2.21906 -0.97432,-6.23161 1.772198,-3.42705 2.59987,-3.57658 6.64428,-1.20034 2.86889,1.68558 3.03102,1.67854 4.40429,-0.19113 1.93847,-2.63918 1.85793,-2.99705 -1.54715,-6.87522 l -2.9729,-3.38594 2.4729,-2.32317 c 1.97471,-1.85514 2.4729,-3.30536 2.4729,-7.19851 0,-5.52082 1.85894,-9.83676 6.21535,-14.43031 2.912,-3.070521 2.96213,-3.290904 1.88804,-8.299222 -1.36183,-6.34999 -1.42161,-14.079313 -0.13507,-17.46317 0.79886,-2.101155 0.62385,-2.731224 -1,-3.600283 C 114.41137,72.149789 114,70.879211 114,66.903543 l 0,-5.026089 4.25,0.609066 4.25,0.609065 2.38637,-5.576804 c 1.31251,-3.067242 3.62497,-6.458763 5.13881,-7.536713 1.51384,-1.07795 3.04822,-3.138389 3.40973,-4.578754 0.55456,-2.209549 1.07988,-2.536685 3.36119,-2.093159 1.6771,0.326057 6.47944,-0.784881 12.64613,-2.925459 5.46822,-1.898129 10.53072,-3.225316 11.25,-2.949304 1.75986,0.675323 1.60343,5.585929 -0.25691,8.064608 -0.82559,1.1 -4.27959,2.9 -7.67554,4 -6.03263,1.954056 -6.23077,2.132288 -8.62518,7.75861 -1.34789,3.167235 -2.23152,5.977799 -1.96363,6.245696 0.2679,0.267898 2.61353,0.778548 5.21251,1.134778 4.40072,0.603185 4.96219,0.418213 8.17097,-2.691863 C 157.4495,60.110466 159,58.020941 159,57.303833 c 0,-2.781446 1.7426,-1.106311 2.91304,2.800254 0.67629,2.257248 1.44317,4.660607 1.70418,5.340798 0.26102,0.680191 -1.61278,3.558352 -4.16399,6.395913 L 154.81466,77 l -8.20733,0 c -4.55901,0 -8.68888,0.481554 -9.29064,1.083312 -1.49819,1.498192 0.93773,10.469309 5.11757,18.847147 1.85096,3.709971 3.54848,8.947661 3.89986,12.033001 0.86829,7.62416 5.17692,11.67655 16.81337,15.81347 l 8.64749,3.0743 8.21775,-11.04869 8.21775,-11.04869 -0.63873,-5.64566 -0.63873,-5.645663 4.65412,-4.481263 L 196.26126,85.5 193.68788,90 c -7.32724,12.81297 5.89353,22.14516 14.00597,9.88644 1.42935,-2.159903 2.77244,-3.753485 2.98463,-3.541293 0.21219,0.212192 -0.18813,2.531679 -0.88961,5.154413 -1.18754,4.4401 -1.65477,4.93574 -6.78214,7.19448 -5.24614,2.31106 -6.09131,3.25117 -17.85968,19.86591 -11.50864,16.24804 -12.56805,17.4411 -15.5,17.45536 -6.10413,0.0297 -6.01057,1.05648 0.96002,10.5356 3.61946,4.922 6.88415,9.06429 7.25487,9.20509 0.37073,0.1408 6.29095,-1.71532 13.15606,-4.12471 11.65553,-4.09066 12.63271,-4.63731 14.75811,-8.256 1.25185,-2.13141 2.60279,-4.40749 3.00207,-5.05796 0.39928,-0.65047 3.20003,-1.43899 6.22389,-1.75227 l 5.49793,-0.5696 -4.08219,1.96693 c -5.42476,2.61383 -8.31437,8.42036 -6.27251,12.6043 0.82286,1.68613 2.72875,3.2436 4.8547,3.96721 2.9564,1.00628 4.2435,0.90201 8.28702,-0.6713 6.59218,-2.56498 6.64479,-2.41186 0.70491,2.05128 l -5.20889,3.91389 -5.00703,-1.48693 c -4.81993,-1.43136 -5.27365,-1.38732 -12.14152,1.17856 -3.92397,1.46602 -12.952,4.69865 -20.06228,7.18363 -12.56365,4.39087 -13.00729,4.47118 -15.75,2.85102 C 163.03464,177.90739 163,177.91754 163,180.38141 c 0,2.21386 2.21617,13.17114 3.61402,17.86859 0.4276,1.43695 -0.1174,1.75 -3.04663,1.75 C 160.0721,200 160,200.08085 160,204 l 0,4 4.48095,0 c 4.07328,0 4.53662,0.25019 5.09294,2.75 1.20904,5.43277 1.61414,6.34985 3.8895,8.805 1.26948,1.36979 4.23666,3.51035 6.59372,4.7568 5.46284,2.88882 9.51421,7.93802 11.06,13.784 1.47131,5.56431 0.74286,7.9042 -2.46073,7.9042 -1.83072,0 -2.53922,0.66421 -2.96169,2.77654 C 184.46636,254.91822 177.80493,260 170.98246,260 c -5.76909,0 -12.36926,-5.05862 -13.85542,-10.6193 l -0.7699,-2.8807 -24.01507,-0.26741 -24.01506,-0.26741 -1.17586,3.92467 C 105.861,254.19599 100.06043,260 97.046991,260 c -1.035879,0 -2.48272,0.20627 -3.215204,0.45837 C 93.099304,260.71048 90.7,260.2819 88.5,259.50598 z m -3.856499,-35.27822 c 1.178925,-0.95027 2.433848,-2.69961 2.788718,-3.88743 0.547689,-1.83322 0.07253,-2.34274 -3.143501,-3.3708 -5.312027,-1.69809 -5.626807,-2.22461 -3.859191,-6.45511 1.31901,-3.15683 1.921938,-3.65008 3.818404,-3.12378 6.633773,1.84099 6.319314,1.92604 7.535988,-2.03824 1.315019,-4.28473 0.550431,-5.31134 -3.974902,-5.33709 -3.452345,-0.0196 -4.122093,-1.20275 -3.331129,-5.88443 l 0.641283,-3.79572 4.52756,0.68711 c 5.096741,0.77349 5.687173,0.18268 5.173728,-5.17707 -0.289452,-3.02153 -0.65911,-3.37629 -3.820459,-3.6665 -4.657342,-0.42754 -5.190503,-1.13517 -4.43151,-5.88165 l 0.644011,-4.02742 4.39375,0.49524 c 4.096984,0.46179 4.394671,0.33448 4.407404,-1.88482 0.0075,-1.30903 0.272423,-3.34448 0.588696,-4.52323 0.476362,-1.77539 -0.04079,-2.34641 -3.013655,-3.32755 C 91.614913,162.37787 90,161.17928 90,160.36574 90,155.91171 77.255913,170.93719 72.074661,181.5 c -6.878841,14.02361 -7.64028,24.73578 -2.504428,35.23308 1.956193,3.99831 2.932488,5.09459 3.855111,4.32888 0.894,-0.74196 2.025135,-0.2012 4.092176,1.95633 3.289468,3.43346 4.179453,3.58452 7.125981,1.20947 z m 15.749509,-70.80955 c 1.13515,-2.95815 0.61146,-3.46724 -1.884424,-1.83188 -1.370278,0.89784 -2.24372,2.03322 -1.940983,2.52305 0.887364,1.43579 3.167293,1.02385 3.825407,-0.69117 z m 18.13791,-31.14646 c 0.90455,-2.16489 1.43434,-5.80235 1.26342,-8.67448 l -0.29434,-4.94622 -2.78376,2.42447 c -3.35012,2.91774 -4.62796,8.85241 -2.68698,12.47916 1.78571,3.33662 2.67771,3.0824 4.50166,-1.28293 z m -1.6064,-13.73272 c 3.14358,-1.62561 3.70278,-3.00085 2.19052,-5.38713 -1.65852,-2.61707 -8.1822,6.7259 -8.0759,11.56598 0.0237,1.08084 0.5843,0.52868 1.42452,-1.40317 0.76195,-1.7519 2.76934,-3.90096 4.46086,-4.77568 z"
       id="path3180"
       style="fill:#2d2d2d" />
    <path
       d="m 85.694934,258.1373 c -3.586888,-2.36502 -5.838736,-5.59835 -6.635504,-9.52764 -0.495376,-2.44297 -1.212521,-3.1775 -3.344998,-3.42608 -3.079219,-0.35895 -3.138444,-0.61404 -1.579745,-6.80419 1.097385,-4.35811 1.03269,-4.61149 -1.967953,-7.70736 -2.181105,-2.25033 -2.938703,-3.82802 -2.550693,-5.31177 0.308317,-1.17901 -0.365505,-3.90901 -1.52655,-6.18484 -1.143174,-2.24081 -2.602235,-7.13447 -3.242357,-10.87481 -0.989716,-5.78306 -0.902139,-7.9754 0.585305,-14.65215 3.732135,-16.75259 17.321955,-35.38501 32.317561,-44.30923 2.3375,-1.3911 4.25,-2.88192 4.25,-3.31293 0,-0.43101 -1.35,-1.34285 -3,-2.0263 -1.65,-0.68345 -3,-1.43539 -3,-1.67098 0,-0.46802 3.050627,-6.59824 3.584478,-7.20299 0.181569,-0.20568 1.883042,0.54228 3.781062,1.66213 l 3.45093,2.0361 2.11245,-2.2486 2.11245,-2.2486 -3.02069,-3.80103 c -3.56507,-4.48607 -3.65934,-5.11023 -1.02068,-6.7581 1.54795,-0.96672 2,-2.33203 2,-6.0406 0,-5.68022 1.6373,-9.97034 5.59846,-14.66931 2.87819,-3.414286 2.90154,-3.547073 2.90154,-16.500003 0,-8.83352 -0.38329,-13.381534 -1.18476,-14.058017 -0.65161,-0.55 -1.3144,-3.025 -1.47287,-5.5 l -0.28812,-4.5 4.04028,0.318125 c 3.89516,0.306697 4.1097,0.163919 5.97288,-3.975083 1.06292,-2.361263 3.62009,-6.244288 5.68259,-8.628944 2.0625,-2.384655 3.75,-5.039618 3.75,-5.899918 0,-1.202798 0.68945,-1.426291 2.98415,-0.96735 2.05241,0.410481 6.14666,-0.503969 13.11291,-2.928759 5.57081,-1.939074 10.23964,-3.388898 10.37517,-3.22183 0.13553,0.167067 0.52967,1.486989 0.87588,2.93316 0.9518,3.975892 -2.19028,7.203254 -9.02991,9.27499 -5.71234,1.730281 -5.86697,1.874545 -8.49868,7.928977 L 141.13903,63.5 l 5.1152,1.183471 c 4.8623,1.124961 5.26673,1.058039 8.18048,-1.353602 1.68591,-1.39539 3.59134,-3.727952 4.23429,-5.183471 1.08857,-2.464328 1.21573,-2.508799 1.84838,-0.646398 0.37366,1.1 1.25646,3.566021 1.96179,5.480047 1.25356,3.401765 1.18113,3.598591 -3.21986,8.75 L 154.75705,77 l -8.81951,0 c -4.85073,0 -9.08336,0.426917 -9.40584,0.948704 -0.95226,1.540788 1.4662,10.032292 4.99877,17.551296 1.8088,3.85 3.77847,9.66505 4.37704,12.92233 1.1928,6.49097 2.93441,9.7795 6.35642,12.00225 2.55866,1.66196 19.68906,7.98945 20.14,7.43915 0.16393,-0.20005 3.91121,-5.34209 8.32728,-11.42674 l 8.02922,-11.06302 -0.86152,-5.436983 -0.86152,-5.436987 4.13434,-4 4.13434,-4 -2.15303,3.80716 c -3.43539,6.074705 -2.52181,12.08715 2.22242,14.62619 3.77712,2.02145 9.58473,0.0969 11.98881,-3.97287 2.33656,-3.955472 3.05757,-3.240796 1.72461,1.70945 -0.92189,3.42365 -1.6388,4.10091 -6.19346,5.85094 -4.93047,1.89444 -5.66963,2.71524 -17.27315,19.18101 L 173.5,144.90376 l -4.75,0.67695 c -2.6125,0.37232 -4.75,1.06058 -4.75,1.52946 0,1.12588 12.99865,18.88315 13.84455,18.91283 0.3605,0.0127 6.44665,-1.89985 13.52479,-4.25 l 12.86934,-4.273 2.58898,-5.25 c 1.93377,-3.92136 3.13731,-5.25 4.75566,-5.25 1.19167,0 3.68543,-0.2571 5.54168,-0.57133 3.31428,-0.56106 3.2987,-0.53502 -0.86593,1.44704 -5.35214,2.54724 -8.02669,7.45655 -6.65945,12.22385 0.72032,2.5116 1.78213,3.50445 4.90362,4.58514 3.5942,1.24434 4.44983,1.18587 8.74049,-0.59725 2.61595,-1.08714 4.75627,-1.85283 4.75627,-1.70155 0,0.15128 -2.07083,1.76222 -4.60185,3.57986 -4.56118,3.27559 -4.64837,3.29364 -9.86335,2.04259 -4.98099,-1.19492 -5.70862,-1.09989 -13.64815,1.78262 -33.42134,12.13387 -31.74804,11.64445 -33.71755,9.86206 -1.89302,-1.71316 -4.18538,-2.2123 -4.14726,-0.90303 0.012,0.4125 1.06468,5.25 2.33926,10.75 l 2.31743,10 -3.33927,0.31037 c -3.23764,0.30092 -3.33926,0.44546 -3.33926,4.75 l 0,4.43963 4.39301,0 c 4.52815,0 5.60699,0.97967 5.60699,5.09157 0,1.0604 0.9,2.69861 2,3.64046 1.1,0.94185 2,2.2191 2,2.83834 0,0.61923 1.75606,1.91775 3.90236,2.8856 4.63572,2.09042 10.55682,7.92349 12.0381,11.85913 0.58275,1.5483 1.05954,4.3608 1.05954,6.25 0,2.94902 -0.33595,3.4349 -2.375,3.4349 -1.78214,0 -2.52133,0.68647 -2.96119,2.75 -2.32993,10.9304 -14.32326,15.56081 -23.05471,8.90101 -2.97616,-2.27003 -4.16267,-4.23321 -5.98398,-9.90101 -0.51489,-1.60231 -2.58381,-1.75 -24.51428,-1.75 l -23.95193,0 -0.70379,3.25 c -0.93171,4.30249 -3.94439,8.43453 -7.484298,10.26509 -3.968693,2.05229 -10.867198,1.86973 -14.275888,-0.37779 z m 1.539753,-35.6142 c 1.783898,-2.48419 0.619628,-4.41332 -3.64691,-6.04273 l -4.412223,-1.68504 1.286827,-3.64767 c 1.310671,-3.71525 1.671777,-3.84781 7.17617,-2.63422 2.933866,0.64685 3.215671,0.4583 4.321099,-2.89118 1.426362,-4.32192 0.790177,-5.61732 -2.768667,-5.63757 -4.409533,-0.0251 -5.424557,-1.22271 -4.629259,-5.46201 l 0.707146,-3.76942 4.865565,0.57626 C 94.959214,191.90094 95,191.8817 95,189.03467 c 0,-1.5791 0.271689,-3.57911 0.603754,-4.44445 0.650623,-1.6955 -0.117637,-2.10701 -5.629864,-3.01562 -3.433204,-0.56591 -3.516068,-0.68653 -3.144965,-4.57791 C 87.209554,173.00542 87.215973,173 91.559722,173 c 4.17751,0 4.375582,-0.13822 5.004843,-3.49247 0.887226,-4.72932 0.137705,-6.19438 -3.587642,-7.0126 -2.46767,-0.54199 -3.049541,-1.10923 -2.66119,-2.59429 0.74339,-2.84273 -0.514615,-2.31961 -4.447325,1.84936 -13.657628,14.4781 -20.596219,29.83381 -19.623519,43.42857 0.600392,8.39126 4.319863,16.43904 7.44555,16.10985 1.117652,-0.11771 3.241872,1.07527 4.787784,2.68885 2.700215,2.81842 2.85292,2.85333 5.400284,1.23468 1.441821,-0.91616 2.952102,-2.12615 3.35618,-2.68885 z m 13.289233,-69.59846 c 0.36228,-1.14145 0.47796,-2.2561 0.25705,-2.477 -0.76453,-0.76454 -4.812095,2.69298 -4.238683,3.62078 1.019285,1.64924 3.303416,0.99309 3.981633,-1.14378 z m 17.84734,-29.67568 C 120.23604,119.64288 121.59595,109 120.19195,109 c -0.57118,0 -2.42303,1.165 -4.11522,2.58889 -2.6339,2.21628 -3.07673,3.26696 -3.07673,7.3 0,6.95551 2.83786,9.25912 5.37126,4.36007 z M 114.78433,110.75 c 1.42442,-1.5125 3.21055,-2.75 3.96918,-2.75 1.68848,0 1.31706,-5.15863 -0.41226,-5.7258 -2.0574,-0.67477 -6.4964,6.36458 -6.8977,10.93836 -0.2069,2.35809 -0.12258,3.38744 0.18737,2.28744 0.30996,-1.1 1.72899,-3.2375 3.15341,-4.75 z"
       id="path3178"
       style="fill:#000000" />
  </g>
</svg>
