<?xml version="1.0" standalone="no"?>
<!DOCTYPE svg PUBLIC "-//W3C//DTD SVG 1.1//EN"
  "http://www.w3.org/Graphics/SVG/1.1/DTD/svg11.dtd">
<svg xmlns="http://www.w3.org/2000/svg" height="9cm" width="9cm" version="1.1" preserveAspectRatio="xMidYMid meet" xmlns:xlink="http://www.w3.org/1999/xlink" viewBox="0 0 9 9">

<title>(Untitled)</title>

<rect x="0" y="0" width="9" height="9" stroke="none" fill="white"/>
<!-- Board -->
<g stroke="black" stroke-width="0.01" stroke-linecap="butt" fill="#a40">
  <rect x="6" y="2" width="1" height="1" stroke="none" fill="#0000ff"/>
  <rect x="2" y="6" width="1" height="1" stroke="none" fill="#0000ff"/>
  <rect x="3" y="4" width="1" height="1" stroke="none" fill="#00ff00"/>
  <rect x="5" y="4" width="1" height="1" stroke="none" fill="#00ff00"/>
  <rect x="2" y="2" width="1" height="1" stroke="none" fill="#00ff00"/>
  <rect x="6" y="6" width="1" height="1" stroke="none" fill="#ff0000"/>
  <rect x="3" y="6" width="1" height="1" stroke="none" fill="#ff0000"/>
  <rect x="0" y="0" width="1" height="1" stroke="none" fill="#B30000"/>
  <rect x="0" y="1" width="1" height="1" stroke="none" fill="#B30000"/>
  <rect x="0" y="2" width="1" height="1" stroke="none" fill="#B30000"/>
  <rect x="0" y="3" width="1" height="1" stroke="none" fill="#B30000"/>
  <rect x="0" y="4" width="1" height="1" stroke="none" fill="#B30000"/>
  <rect x="0" y="5" width="1" height="1" stroke="none" fill="#B30000"/>
  <rect x="0" y="6" width="1" height="1" stroke="none" fill="#B30000"/>
  <rect x="0" y="7" width="1" height="1" stroke="none" fill="#B30000"/>
  <rect x="0" y="8" width="1" height="1" stroke="none" fill="#B30000"/>
  <rect x="1" y="0" width="1" height="1" stroke="none" fill="#B30000"/>
  <rect x="1" y="8" width="1" height="1" stroke="none" fill="#B30000"/>
  <rect x="2" y="0" width="1" height="1" stroke="none" fill="#B30000"/>
  <rect x="2" y="8" width="1" height="1" stroke="none" fill="#B30000"/>
  <rect x="3" y="0" width="1" height="1" stroke="none" fill="#B30000"/>
  <rect x="3" y="8" width="1" height="1" stroke="none" fill="#B30000"/>
  <rect x="4" y="0" width="1" height="1" stroke="none" fill="#B30000"/>
  <rect x="4" y="8" width="1" height="1" stroke="none" fill="#B30000"/>
  <rect x="5" y="0" width="1" height="1" stroke="none" fill="#B30000"/>
  <rect x="5" y="8" width="1" height="1" stroke="none" fill="#B30000"/>
  <rect x="6" y="0" width="1" height="1" stroke="none" fill="#B30000"/>
  <rect x="6" y="8" width="1" height="1" stroke="none" fill="#B30000"/>
  <rect x="7" y="0" width="1" height="1" stroke="none" fill="#B30000"/>
  <rect x="7" y="8" width="1" height="1" stroke="none" fill="#B30000"/>
  <rect x="8" y="0" width="1" height="1" stroke="none" fill="#B30000"/>
  <rect x="8" y="1" width="1" height="1" stroke="none" fill="#B30000"/>
  <rect x="8" y="2" width="1" height="1" stroke="none" fill="#B30000"/>
  <rect x="8" y="3" width="1" height="1" stroke="none" fill="#B30000"/>
  <rect x="8" y="4" width="1" height="1" stroke="none" fill="#B30000"/>
  <rect x="8" y="5" width="1" height="1" stroke="none" fill="#B30000"/>
  <rect x="8" y="6" width="1" height="1" stroke="none" fill="#B30000"/>
  <rect x="8" y="7" width="1" height="1" stroke="none" fill="#B30000"/>
  <rect x="8" y="8" width="1" height="1" stroke="none" fill="#B30000"/>
</g>
<g stroke="black" stroke-width="0.1" stroke-linecap="butt" transform="matrix(0, 1, 1, 0, 0.0, 0.0)" fill="none">
  <!-- Grid lines -->
  <g stroke="rgba(0, 0, 0, 1)" stroke-width="0.1" stroke-linecap="square" fill="none">
    <!-- Grid lines parallel to the y axis -->
    <path d="
      M 2,2  V 7  M 3,2  V 7  M 4,2  V 7  M 5,2  V 7  M 6,2  V 7  M 7,2  V 7
    "/>
    <!-- Grid lines parallel to the x axis -->
    <path d="
      M 2,2  H 7  M 2,3  H 7  M 2,4  H 7  M 2,5  H 7  M 2,6  H 7  M 2,7  H 7
    "/>
  </g>
</g>
<!-- Board -->

</svg>
